#define max_toggled_width 16
#define max_toggled_height 16
static unsigned char max_toggled_bits[] = {
   0x00, 0x00, 0x00, 0x00, 0x00, 0x00, 0xe0, 0x1f, 0xf0, 0x3f, 0x30, 0x30,
   0xf8, 0x33, 0xfc, 0x37, 0x0c, 0x36, 0x0c, 0x3e, 0x0c, 0x1e, 0x0c, 0x06,
   0xfc, 0x07, 0xf8, 0x03, 0x00, 0x00, 0x00, 0x00 };
