#define max_toggled_width 16
#define max_toggled_height 16
static unsigned char max_toggled_bits[] = {
   0x00, 0x00, 0xc0, 0x7f, 0xc0, 0x7f, 0xc0, 0x60, 0xc0, 0x60, 0xc0, 0x60,
   0xfe, 0x6f, 0xfe, 0x6f, 0x06, 0x7c, 0x06, 0x7c, 0x06, 0x0c, 0x06, 0x0c,
   0x06, 0x0c, 0xfe, 0x0f, 0xfe, 0x0f, 0x00, 0x00 };
