#define max_toggled_width 14
#define max_toggled_height 12
static unsigned char max_toggled_bits[] = {
   0xf0, 0x3f, 0xf0, 0x3f, 0x30, 0x30, 0x30, 0x30, 0x3f, 0x30, 0x3f, 0x30,
   0xf3, 0x3f, 0xf3, 0x3f, 0x03, 0x03, 0x03, 0x03, 0xff, 0x03, 0xff, 0x03 };
