#define max_toggled_width 16
#define max_toggled_height 16
static unsigned char max_toggled_bits[] = {
   0x00, 0x00, 0xc0, 0x3f, 0xe0, 0x7f, 0x60, 0x60, 0x60, 0x60, 0xfc, 0x63,
   0xfe, 0x67, 0x06, 0x66, 0x06, 0x66, 0x06, 0x7e, 0x06, 0x3e, 0x06, 0x06,
   0x06, 0x06, 0xfe, 0x07, 0xfc, 0x03, 0x00, 0x00 };
